<?xml version="1.0" encoding="UTF-8" standalone="no"?>
<svg width="2341px" height="46px" viewBox="0 0 2341 46" version="1.1" xmlns="http://www.w3.org/2000/svg" xmlns:xlink="http://www.w3.org/1999/xlink">

    <g id="Page-1" stroke="none" stroke-width="25" fill="none" fill-rule="evenodd">
        <path d="M0.972255609,41 C42.8350144,41 42.9393255,5.0446482 84.6977731,4.99998363 C126.456221,4.95531906 126.560532,40.8208954 168.423291,40.8208954 C210.286049,40.8208954 210.181738,4.95509592 252.148808,4.99998363 C294.115878,5.04487134 294.011567,41 335.874326,41 C377.737085,41 377.841396,5.0446482 419.599843,4.99998363 C461.358291,4.95531906 461.998872,40.8208954 503.325361,40.8208954 C544.65185,40.8208954 543.477187,4.95509546 584.907505,4.99998363 C626.337823,5.0448718 626.770264,41 668.633023,41 C710.495781,41 710.600092,5.0446482 752.35854,4.99998363 C794.116988,4.95531906 794.221299,40.8208954 836.084058,40.8208954 C877.946816,40.8208954 877.842505,4.95509592 919.809575,4.99998363 C961.776645,5.04487134 961.672334,41 1003.53509,41 C1045.39785,41 1045.50216,5.0446482 1087.26061,4.99998363 C1129.01906,4.95531906 1129.12337,40.8208954 1170.98613,40.8208954 C1212.84889,40.8208954 1212.74458,4.95509592 1254.71165,4.99998363 C1296.67872,5.04487134 1296.5744,41 1338.43716,41 C1380.29992,41 1380.40423,5.0446482 1422.16268,4.99998363 C1463.92113,4.95531906 1464.02544,40.8208954 1505.8882,40.8208954 C1547.75096,40.8208954 1547.64665,4.95509592 1589.61372,4.99998363 C1631.58079,5.04487134 1631.47647,41 1673.33923,41 C1715.20199,41 1715.3063,5.0446482 1757.06475,4.99998363 C1798.8232,4.95531906 1799.46378,40.8208954 1840.79027,40.8208954 C1882.11676,40.8208954 1880.94209,4.95509546 1922.37241,4.99998363 C1963.80273,5.0448718 1964.23517,41 2006.09793,41 C2047.96069,41 2048.065,5.0446482 2089.82345,4.99998363 C2131.5819,4.95531906 2131.68621,40.8208954 2173.54896,40.8208954 C2215.41172,40.8208954 2215.30741,4.95509592 2257.27448,4.99998363 C2299.24155,5.04487134 2299.13724,41 2341,41" id="Path" stroke="rgba(0,0,255,.6)" stroke-width="25"></path>
    </g>
</svg>