<?xml version="1.0" encoding="utf-8"?>
<!-- Generator: Adobe Illustrator 19.1.0, SVG Export Plug-In . SVG Version: 6.00 Build 0)  -->
<svg version="1.1" id="Layer_1" xmlns="http://www.w3.org/2000/svg" xmlns:xlink="http://www.w3.org/1999/xlink" x="0px" y="0px"
	 viewBox="0 0 1028.8 710.5" style="enable-background:new 0 0 1028.8 710.5;" xml:space="preserve">
<style type="text/css">
	.st0{display:none;fill:#010101;}
	.st1{fill:#FFFFFF;}
</style>
<g id="black_logo">
	<g id="XMLID_1_">
		<g>
			<path d="M509.1,305.9l-56.5,33l0,143.2h0l56.5-33h0V305.9L509.1,305.9z M515.2,458l-67.8,39.6l0,0.1l-72.7-42.5l0-0.1l-0.1-160.6
				l140-81.8l0,0l72.5,42.4v77.6l0,0l67.1,39.2V455L582,497.1L515.2,458z M513.9,224.8L458,257.5l56.4,32.9l55.9-32.7v0L513.9,224.8
				L513.9,224.8z M643.4,448.7v-65.4l-56.4,33v65.4v0L643.4,448.7L643.4,448.7z M581.5,407l55.7-32.6l-56-32.7l-55.7,32.6l0,0
				L581.5,407z M576.3,332.1l0-65.5l-56.5,33l0,0v65.6L576.3,332.1z M576.3,481.3v-64.9l-56.4-33v64.9l0,0l0,0.1v-0.1L576.3,481.3z
				 M447,329.7l56.6-33.1l-56.3-32.9l-56.7,33.1L447,329.7z M441.9,482.1v-143l-56.4-33v0v142.9L441.9,482.1L441.9,482.1z"/>
		</g>
	</g>
</g>
</svg>
