<?xml version="1.0" encoding="UTF-8" standalone="no"?>
<svg width="2502px" height="74px" viewBox="0 0 2502 74" version="1.1" xmlns="http://www.w3.org/2000/svg" xmlns:xlink="http://www.w3.org/1999/xlink">

    <g id="Page-1" stroke="none" stroke-width="1" fill="none" fill-rule="evenodd">
        <polyline id="Path" stroke="blue" stroke-width="30" points="3 66.7014925 81.125 7 159.25 67 237.375 7 315.5 66.7014925 393.625 7 471.75 67 549.875 7 628 66.7014925 704.125 7 782.25 67 860.375 7 938.5 66.7014925 1016.625 7 1094.75 67 1172.875 7 1251 66.7014925 1329.125 7 1407.25 67 1485.375 7 1563.5 66.7014925 1641.625 7 1719.75 67 1797.875 7 1876 66.7014925 1952.125 7 2030.25 67 2108.375 7 2186.5 66.7014925 2264.625 7 2342.75 67 2420.875 7 2499 66.7014925"></polyline>
    </g>
</svg>